<svg xmlns="http://www.w3.org/2000/svg" width="34" height="44" viewBox="0 0 34 44">
    <g fill="none" fill-rule="evenodd" stroke="#79B943" stroke-linecap="round" stroke-linejoin="round" stroke-width="3">
        <path d="M20.889 17.882c0 2.275-1.74 4.118-3.887 4.118-2.148 0-3.89-1.843-3.89-4.118 0-2.274 1.742-4.117 3.89-4.117s3.887 1.843 3.887 4.117z"/>
        <path d="M31.391 23.116S32 20.908 32 18.459C32 9.368 25.285 2 17.003 2 8.717 2 2 9.368 2 18.46c0 1.653.223 3.249.637 4.755 0 0 2.536 9.141 14.366 18.785 0 0 11.366-8.044 14.388-18.884z"/>
    </g>
</svg>
